name C:\Users\u0101727\Documents\MyRepositories\upper-imu-dc\OpenSim\subject0\MA\ResultsMA\grid_4nodes_9dim\angles_11.mot
datacolumns 10
datarows 37
range 1100.01000000 1100.37000000
endheader 
time	clav_prot	clav_elev	scapula_abduction	scapula_elevation	scapula_upward_rot	scapula_winging	plane_elv	shoulder_elv	axial_rot	
       1100.01000000	        -50.00000000	        -10.00000000	         15.00000000	          3.33333333	         30.00000000	         10.00000000	         30.00000000	         63.33333333	        -30.00000000	
       1100.02000000	        -38.33333333	        -10.00000000	         15.00000000	          3.33333333	         30.00000000	         10.00000000	         30.00000000	         63.33333333	        -30.00000000	
       1100.03000000	        -26.66666667	        -10.00000000	         15.00000000	          3.33333333	         30.00000000	         10.00000000	         30.00000000	         63.33333333	        -30.00000000	
       1100.04000000	        -15.00000000	        -10.00000000	         15.00000000	          3.33333333	         30.00000000	         10.00000000	         30.00000000	         63.33333333	        -30.00000000	
       1100.05000000	        -50.00000000	          0.00000000	         15.00000000	          3.33333333	         30.00000000	         10.00000000	         30.00000000	         63.33333333	        -30.00000000	
       1100.06000000	        -38.33333333	          0.00000000	         15.00000000	          3.33333333	         30.00000000	         10.00000000	         30.00000000	         63.33333333	        -30.00000000	
       1100.07000000	        -26.66666667	          0.00000000	         15.00000000	          3.33333333	         30.00000000	         10.00000000	         30.00000000	         63.33333333	        -30.00000000	
       1100.08000000	        -15.00000000	          0.00000000	         15.00000000	          3.33333333	         30.00000000	         10.00000000	         30.00000000	         63.33333333	        -30.00000000	
       1100.09000000	        -50.00000000	         10.00000000	         15.00000000	          3.33333333	         30.00000000	         10.00000000	         30.00000000	         63.33333333	        -30.00000000	
       1100.10000000	        -38.33333333	         10.00000000	         15.00000000	          3.33333333	         30.00000000	         10.00000000	         30.00000000	         63.33333333	        -30.00000000	
       1100.11000000	        -26.66666667	         10.00000000	         15.00000000	          3.33333333	         30.00000000	         10.00000000	         30.00000000	         63.33333333	        -30.00000000	
       1100.12000000	        -15.00000000	         10.00000000	         15.00000000	          3.33333333	         30.00000000	         10.00000000	         30.00000000	         63.33333333	        -30.00000000	
       1100.13000000	        -50.00000000	         20.00000000	         15.00000000	          3.33333333	         30.00000000	         10.00000000	         30.00000000	         63.33333333	        -30.00000000	
       1100.14000000	        -38.33333333	         20.00000000	         15.00000000	          3.33333333	         30.00000000	         10.00000000	         30.00000000	         63.33333333	        -30.00000000	
       1100.15000000	        -26.66666667	         20.00000000	         15.00000000	          3.33333333	         30.00000000	         10.00000000	         30.00000000	         63.33333333	        -30.00000000	
       1100.16000000	        -15.00000000	         20.00000000	         15.00000000	          3.33333333	         30.00000000	         10.00000000	         30.00000000	         63.33333333	        -30.00000000	
       1100.17000000	        -50.00000000	        -10.00000000	        -40.00000000	         10.00000000	         30.00000000	         10.00000000	         30.00000000	         63.33333333	        -30.00000000	
       1100.18000000	        -38.33333333	        -10.00000000	        -40.00000000	         10.00000000	         30.00000000	         10.00000000	         30.00000000	         63.33333333	        -30.00000000	
       1100.19000000	        -26.66666667	        -10.00000000	        -40.00000000	         10.00000000	         30.00000000	         10.00000000	         30.00000000	         63.33333333	        -30.00000000	
       1100.20000000	        -15.00000000	        -10.00000000	        -40.00000000	         10.00000000	         30.00000000	         10.00000000	         30.00000000	         63.33333333	        -30.00000000	
       1100.21000000	        -50.00000000	          0.00000000	        -40.00000000	         10.00000000	         30.00000000	         10.00000000	         30.00000000	         63.33333333	        -30.00000000	
       1100.22000000	        -38.33333333	          0.00000000	        -40.00000000	         10.00000000	         30.00000000	         10.00000000	         30.00000000	         63.33333333	        -30.00000000	
       1100.23000000	        -26.66666667	          0.00000000	        -40.00000000	         10.00000000	         30.00000000	         10.00000000	         30.00000000	         63.33333333	        -30.00000000	
       1100.24000000	        -15.00000000	          0.00000000	        -40.00000000	         10.00000000	         30.00000000	         10.00000000	         30.00000000	         63.33333333	        -30.00000000	
       1100.25000000	        -50.00000000	         10.00000000	        -40.00000000	         10.00000000	         30.00000000	         10.00000000	         30.00000000	         63.33333333	        -30.00000000	
       1100.26000000	        -38.33333333	         10.00000000	        -40.00000000	         10.00000000	         30.00000000	         10.00000000	         30.00000000	         63.33333333	        -30.00000000	
       1100.27000000	        -26.66666667	         10.00000000	        -40.00000000	         10.00000000	         30.00000000	         10.00000000	         30.00000000	         63.33333333	        -30.00000000	
       1100.28000000	        -15.00000000	         10.00000000	        -40.00000000	         10.00000000	         30.00000000	         10.00000000	         30.00000000	         63.33333333	        -30.00000000	
       1100.29000000	        -50.00000000	         20.00000000	        -40.00000000	         10.00000000	         30.00000000	         10.00000000	         30.00000000	         63.33333333	        -30.00000000	
       1100.30000000	        -38.33333333	         20.00000000	        -40.00000000	         10.00000000	         30.00000000	         10.00000000	         30.00000000	         63.33333333	        -30.00000000	
       1100.31000000	        -26.66666667	         20.00000000	        -40.00000000	         10.00000000	         30.00000000	         10.00000000	         30.00000000	         63.33333333	        -30.00000000	
       1100.32000000	        -15.00000000	         20.00000000	        -40.00000000	         10.00000000	         30.00000000	         10.00000000	         30.00000000	         63.33333333	        -30.00000000	
       1100.33000000	        -50.00000000	        -10.00000000	        -21.66666667	         10.00000000	         30.00000000	         10.00000000	         30.00000000	         63.33333333	        -30.00000000	
       1100.34000000	        -38.33333333	        -10.00000000	        -21.66666667	         10.00000000	         30.00000000	         10.00000000	         30.00000000	         63.33333333	        -30.00000000	
       1100.35000000	        -26.66666667	        -10.00000000	        -21.66666667	         10.00000000	         30.00000000	         10.00000000	         30.00000000	         63.33333333	        -30.00000000	
       1100.36000000	        -15.00000000	        -10.00000000	        -21.66666667	         10.00000000	         30.00000000	         10.00000000	         30.00000000	         63.33333333	        -30.00000000	
       1100.37000000	        -50.00000000	          0.00000000	        -21.66666667	         10.00000000	         30.00000000	         10.00000000	         30.00000000	         63.33333333	        -30.00000000	
